<svg width="100" height="100" viewBox="0 0 100 100" fill="none" xmlns="http://www.w3.org/2000/svg">
<path fill-rule="evenodd" clip-rule="evenodd" d="M48.2451 11.5239C43.1201 12.185 38.2633 14.1005 36.2132 15.8748C24.2565 26.283 17.5053 40.042 14.0009 52.038C12.492 57.12 11.4814 62.3515 10.9849 67.6503C10.8024 69.8145 10.6361 72.0804 10.9473 74.2445C13.0028 76.6968 15.9114 78.4767 18.6108 80.0024C24.2511 83.1949 32.725 86.5061 44.1182 87.8396C50.5689 88.5968 58.7154 89.0262 66.2286 88.3934C74.0262 87.7322 80.0046 86.0088 83.1065 83.3927C88.3336 78.9909 89.6537 73.8546 89.1761 69.3568C88.6663 64.52 86.085 60.429 83.4875 58.6039C79.0064 55.4622 73.9618 55.1458 69.207 56.4567C64.3127 57.8128 60.2931 60.7511 58.3934 63.1582C57.9167 63.7637 57.3253 64.2577 56.657 64.6088C55.9886 64.9598 55.258 65.1601 54.5119 65.1968C53.7659 65.2335 53.0207 65.1058 52.3242 64.8219C51.6277 64.538 50.9951 64.1041 50.4669 63.5481C47.5153 60.4403 42.4975 59.5362 35.7732 64.2544C35.0396 64.7702 34.1965 65.0876 33.3186 65.1786C32.4407 65.2695 31.555 65.1312 30.7399 64.7759C29.9249 64.4206 29.2056 63.8592 28.6457 63.1414C28.0859 62.4236 27.7027 61.5716 27.5301 60.6607C25.9953 52.5578 26.7949 43.9465 28.2117 36.8438C29.6392 29.7298 31.7858 23.6103 33.3636 20.2991C33.8098 19.3618 34.4948 18.5737 35.3421 18.0229C36.1894 17.4721 37.1656 17.1804 38.1613 17.1804C39.1571 17.1804 40.1332 17.4721 40.9805 18.0229C41.8278 18.5737 42.5129 19.3618 42.9591 20.2991C44.0485 22.5819 46.0395 24.6274 48.3578 25.4863C50.1556 24.294 51.7173 22.6271 52.9838 20.8472C55.3129 17.5812 56.0911 14.4904 55.0553 11.7612C52.9516 10.9701 50.4079 11.247 48.2451 11.5239ZM56.2038 0.426278C58.8012 0.951775 62.5954 2.3192 64.4254 6.17284C68.4342 14.6147 65.1231 22.6384 61.5704 27.6278C59.252 30.8825 56.2682 33.9451 52.796 35.821C52.0715 36.2166 50.5957 36.9511 48.8945 36.9511C45.7228 36.9511 42.6156 35.4312 40.0665 33.5326C39.5835 35.2617 39.1166 37.1602 38.7141 39.1718C37.9181 43.0314 37.4867 46.9645 37.4261 50.9136C43.0771 48.9924 48.8569 49.1958 53.8371 52.1567C57.5799 49.062 61.8846 46.8064 66.4862 45.5286C73.4627 43.6018 81.8346 43.8674 89.4391 49.2015C94.8862 53.0268 99.0131 60.2312 99.8449 68.1137C100.714 76.3295 98.0042 85.3138 89.8094 92.2187C84.0242 97.0895 75.2069 98.9711 67.0926 99.6548C58.6939 100.367 49.8229 99.8808 42.9376 99.0728C30.1758 97.5811 20.3764 93.8291 13.5287 89.9585C9.03684 87.4158 2.8921 83.9012 0.944027 78.5163C-0.370788 74.8661 -0.0273261 70.4361 0.294669 66.6389C0.723996 61.6608 1.77585 55.4453 3.74539 48.7099C7.67373 35.2673 15.364 19.3611 29.3762 7.16733C33.6856 3.4154 40.8983 1.08739 46.9357 0.307618C50.0483 -0.0935677 53.3219 -0.150073 56.2038 0.426278Z" fill="url(#paint0_linear_75_250)"/>
<defs>
<linearGradient id="paint0_linear_75_250" x1="-18.1818" y1="50.7937" x2="100" y2="50.7937" gradientUnits="userSpaceOnUse">
<stop stop-color="#FF5637"/>
<stop offset="1" stop-color="#F7084C"/>
</linearGradient>
</defs>
</svg>
