<svg width="66" height="63" viewBox="0 0 66 63" fill="none" xmlns="http://www.w3.org/2000/svg">
<g clip-path="url(#clip0_27_151)">
<g clip-path="url(#clip1_27_151)">
<path d="M33.0001 13.6665C43.1256 13.6665 51.3334 21.8743 51.3334 31.9998C51.3334 42.1253 43.1256 50.3332 33.0001 50.3332C22.8746 50.3332 14.6667 42.1253 14.6667 31.9998C14.6667 21.8743 22.8746 13.6665 33.0001 13.6665ZM33.0001 20.9998C32.5139 20.9998 32.0475 21.193 31.7037 21.5368C31.3599 21.8806 31.1667 22.3469 31.1667 22.8332V31.9998C31.1669 32.486 31.3601 32.9523 31.7039 33.296L37.2039 38.796C37.5497 39.13 38.0128 39.3148 38.4935 39.3106C38.9742 39.3064 39.434 39.1136 39.7739 38.7737C40.1138 38.4338 40.3066 37.9739 40.3108 37.4932C40.315 37.0125 40.1302 36.5494 39.7962 36.2037L34.8334 31.2408V22.8332C34.8334 22.3469 34.6403 21.8806 34.2964 21.5368C33.9526 21.193 33.4863 20.9998 33.0001 20.9998Z" fill="url(#paint0_linear_27_151)"/>
</g>
</g>
<rect x="1.5" y="1.5" width="63" height="60" rx="8.5" stroke="url(#paint1_linear_27_151)" stroke-width="3"/>
<defs>
<linearGradient id="paint0_linear_27_151" x1="8.00008" y1="32.2908" x2="51.3334" y2="32.2908" gradientUnits="userSpaceOnUse">
<stop stop-color="#FF5637"/>
<stop offset="1" stop-color="#F7084C"/>
</linearGradient>
<linearGradient id="paint1_linear_27_151" x1="-12" y1="32" x2="66" y2="32" gradientUnits="userSpaceOnUse">
<stop stop-color="#FF5637"/>
<stop offset="1" stop-color="#F7084C"/>
</linearGradient>
<clipPath id="clip0_27_151">
<rect width="44" height="44" fill="white" transform="translate(11 10)"/>
</clipPath>
<clipPath id="clip1_27_151">
<rect width="44" height="44" fill="white" transform="translate(11 10)"/>
</clipPath>
</defs>
</svg>
