<svg width="94" height="94" viewBox="0 0 94 94" fill="none" xmlns="http://www.w3.org/2000/svg">
<path fill-rule="evenodd" clip-rule="evenodd" d="M77.0814 4.95976e-06C79.5189 4.95976e-06 81.5001 1.98126 81.5001 4.41876V12.5H89.5814C90.4554 12.4998 91.3099 12.7589 92.0368 13.2444C92.7636 13.7299 93.3301 14.4201 93.6646 15.2276C93.9992 16.0352 94.0867 16.9238 93.9161 17.7811C93.7455 18.6383 93.3245 19.4258 92.7064 20.0438L83.5814 29.1688C82.249 30.4982 80.4447 31.2464 78.5626 31.25H69.3751L47.3126 53.3125C46.424 54.1405 45.2487 54.5913 44.0343 54.5699C42.82 54.5484 41.6613 54.0565 40.8025 53.1976C39.9436 52.3388 39.4517 51.1802 39.4303 49.9658C39.4088 48.7514 39.8596 47.5761 40.6876 46.6875L62.7501 24.625V15.4375C62.7501 13.5563 63.5001 11.75 64.8314 10.4125L73.9564 1.2875C74.3653 0.875262 74.8522 0.548556 75.3888 0.326435C75.9253 0.104315 76.5007 -0.00877662 77.0814 -0.00624504M9.6251 50C9.62444 44.9034 10.7571 39.8703 12.9411 35.2653C15.1251 30.6603 18.3057 26.5986 22.2528 23.3742C26.1998 20.1498 30.8145 17.8435 35.7626 16.6221C40.7107 15.4008 45.8685 15.295 50.8626 16.3125C52.0746 16.5438 53.3289 16.2878 54.3535 15.6002C55.378 14.9125 56.0901 13.8487 56.3352 12.6394C56.5804 11.4301 56.3388 10.1729 55.663 9.14057C54.9871 8.10824 53.9315 7.38401 52.7251 7.125C43.5105 5.25159 33.9375 6.39682 25.4249 10.391C16.9123 14.3851 9.91301 21.0156 5.46443 29.2998C1.01584 37.5841 -0.645327 47.0811 0.727119 56.3835C2.09956 65.6859 6.43258 74.2986 13.084 80.9451C19.7354 87.5917 28.3513 91.9184 37.6547 93.284C46.9581 94.6497 56.4539 92.9816 64.7349 88.5269C73.0158 84.0723 79.6412 77.0681 83.6291 68.5526C87.617 60.037 88.7553 50.4632 86.8751 41.25C86.6273 40.0317 85.9056 38.9617 84.8689 38.2754C83.8322 37.5891 82.5653 37.3428 81.347 37.5906C80.1286 37.8384 79.0586 38.5601 78.3724 39.5968C77.6861 40.6335 77.4398 41.9004 77.6876 43.1188C78.1418 45.3396 78.3709 47.6333 78.3751 50C78.3751 59.1168 74.7535 67.8602 68.3069 74.3068C61.8603 80.7534 53.1169 84.375 44.0001 84.375C34.8833 84.375 26.1399 80.7534 19.6933 74.3068C13.2467 67.8602 9.6251 59.1168 9.6251 50ZM43.1501 34.4C44.3916 34.3337 45.556 33.7769 46.387 32.8521C47.218 31.9273 47.6477 30.7103 47.5813 29.4688C47.515 28.2272 46.9583 27.0629 46.0335 26.2318C45.1087 25.4008 43.8916 24.9712 42.6501 25.0375C37.8496 25.2962 33.2256 26.9335 29.3319 29.7533C25.4383 32.573 22.4402 36.4556 20.697 40.9358C18.9537 45.4161 18.5392 50.3039 19.5031 55.0137C20.4669 59.7236 22.7683 64.0556 26.1315 67.4908C29.4947 70.9259 33.777 73.3186 38.4654 74.382C43.1537 75.4454 48.0492 75.1345 52.5654 73.4865C57.0815 71.8385 61.0267 68.9234 63.9283 65.0903C66.8299 61.2573 68.5648 56.6689 68.9251 51.875C69.0171 50.6351 68.6128 49.4095 67.8011 48.4677C66.9894 47.5259 65.8369 46.9451 64.597 46.8531C63.3571 46.7611 62.1314 47.1654 61.1897 47.9771C60.2479 48.7888 59.6671 49.9414 59.5751 51.1813C59.3471 54.1759 58.2609 57.0414 56.4466 59.4347C54.6322 61.828 52.1665 63.6476 49.3448 64.6759C46.523 65.7041 43.4646 65.8974 40.5359 65.2325C37.6071 64.5675 34.932 63.0727 32.8309 60.9268C30.7297 58.7809 29.2915 56.0749 28.6884 53.1328C28.0854 50.1906 28.343 47.137 29.4304 44.3375C30.5179 41.538 32.3891 39.1113 34.8201 37.3477C37.2511 35.5842 40.1388 34.5586 43.1376 34.3938" fill="url(#paint0_linear_27_245)"/>
<defs>
<linearGradient id="paint0_linear_27_245" x1="-16.7855" y1="47.6149" x2="94.001" y2="47.6149" gradientUnits="userSpaceOnUse">
<stop stop-color="#FF5637"/>
<stop offset="1" stop-color="#F7084C"/>
</linearGradient>
</defs>
</svg>
