<svg width="66" height="63" viewBox="0 0 66 63" fill="none" xmlns="http://www.w3.org/2000/svg">
<rect x="1.5" y="1.5" width="63" height="60" rx="8.5" stroke="url(#paint0_linear_27_158)" stroke-width="3"/>
<path d="M33.0001 31.0832C31.7845 31.0832 30.6187 30.6003 29.7592 29.7407C28.8996 28.8812 28.4167 27.7154 28.4167 26.4998C28.4167 25.2843 28.8996 24.1185 29.7592 23.2589C30.6187 22.3994 31.7845 21.9165 33.0001 21.9165C34.2157 21.9165 35.3814 22.3994 36.241 23.2589C37.1005 24.1185 37.5834 25.2843 37.5834 26.4998C37.5834 27.1017 37.4649 27.6977 37.2345 28.2538C37.0042 28.8099 36.6666 29.3151 36.241 29.7407C35.8154 30.1663 35.3101 30.504 34.754 30.7343C34.198 30.9646 33.602 31.0832 33.0001 31.0832ZM33.0001 13.6665C29.5965 13.6665 26.3323 15.0186 23.9255 17.4253C21.5188 19.832 20.1667 23.0962 20.1667 26.4998C20.1667 36.1248 33.0001 50.3332 33.0001 50.3332C33.0001 50.3332 45.8334 36.1248 45.8334 26.4998C45.8334 23.0962 44.4813 19.832 42.0746 17.4253C39.6679 15.0186 36.4037 13.6665 33.0001 13.6665Z" fill="url(#paint1_linear_27_158)"/>
<defs>
<linearGradient id="paint0_linear_27_158" x1="-12" y1="32" x2="66" y2="32" gradientUnits="userSpaceOnUse">
<stop stop-color="#FF5637"/>
<stop offset="1" stop-color="#F7084C"/>
</linearGradient>
<linearGradient id="paint1_linear_27_158" x1="15.5001" y1="32.2908" x2="45.8334" y2="32.2908" gradientUnits="userSpaceOnUse">
<stop stop-color="#FF5637"/>
<stop offset="1" stop-color="#F7084C"/>
</linearGradient>
</defs>
</svg>
