<svg width="50" height="50" viewBox="0 0 50 50" fill="none" xmlns="http://www.w3.org/2000/svg">
<path d="M42.8545 30.9582L45.8337 27.979L42.8545 24.9998L35.417 32.4373L17.5628 14.5832L25.0003 7.14567L22.0212 4.1665L19.042 7.14567L16.0628 4.1665L11.6045 8.62484L8.62533 5.64567L5.64616 8.62484L8.62533 11.604L4.16699 16.0623L7.14616 19.0415L4.16699 22.0207L7.14616 24.9998L14.5837 17.5623L32.4378 35.4165L25.0003 42.854L27.9795 45.8332L30.9587 42.854L33.9378 45.8332L38.3962 41.3748L41.3753 44.354L44.3545 41.3748L41.3753 38.3957L45.8337 33.9373L42.8545 30.9582Z" fill="white"/>
</svg>
